<?xml version="1.0" standalone="no"?>
<!DOCTYPE svg PUBLIC "-//W3C//DTD SVG 20010904//EN"
 "http://www.w3.org/TR/2001/REC-SVG-20010904/DTD/svg10.dtd">
<svg version="1.0" xmlns="http://www.w3.org/2000/svg"
 width="200.000000pt" height="200.000000pt" viewBox="0 0 200.000000 200.000000"
 preserveAspectRatio="xMidYMid meet">

<g transform="translate(0.000000,200.000000) scale(0.100000,-0.100000)"
fill="#ffffff" stroke="none">
<path d="M82 1664 l-22 -15 0 -640 0 -640 25 -24 24 -25 900 0 900 0 15 22
c14 20 16 90 16 568 0 411 -3 549 -12 558 -9 9 -144 12 -544 12 l-532 0 -68
63 c-38 34 -88 79 -112 100 l-42 37 -263 0 c-221 0 -266 -2 -285 -16z m638
-144 l108 -100 526 0 526 0 0 -520 0 -520 -880 0 -880 0 0 620 0 620 246 0
246 0 108 -100z"/>
<path d="M744 1169 c-60 -39 -113 -75 -117 -79 -9 -8 121 -120 140 -120 7 0
63 32 124 72 l112 72 -39 34 c-21 19 -55 47 -75 63 l-37 29 -108 -71z"/>
<path d="M1102 1182 c-39 -31 -71 -60 -71 -65 -1 -9 197 -138 221 -145 16 -4
138 87 146 109 3 6 -148 113 -215 152 -6 4 -42 -18 -81 -51z"/>
<path d="M695 893 c-53 -45 -63 -59 -53 -68 32 -29 211 -125 221 -118 23 13
117 97 117 104 0 3 -49 36 -110 72 l-110 66 -65 -56z"/>
<path d="M1152 882 c-126 -75 -124 -65 -30 -144 l48 -40 110 64 c60 34 110 67
110 71 0 7 -26 32 -96 90 l-30 26 -112 -67z"/>
<path d="M926 735 l-69 -59 -38 22 c-47 27 -51 27 -47 0 2 -15 34 -41 113 -89
l110 -68 3 65 c2 36 2 92 0 126 l-3 61 -69 -58z"/>
<path d="M1020 664 c0 -69 4 -124 8 -122 5 2 57 32 115 68 85 52 107 70 107
88 l0 22 -41 -20 -40 -21 -68 55 c-38 31 -71 56 -75 56 -3 0 -6 -57 -6 -126z"/>
</g>
</svg>
