<svg viewBox="0 0 500 500" fill="none" xmlns="http://www.w3.org/2000/svg"><path d="M246.62 107.482c-30.685-9.455-69.799-4.018-95.508 16.935-22.036 17.997-34.61 47.497-36.367 75.517-4.526 72.018 43.802 144.627 121.053 151.276 24.437 2.115 46.96 8.138 60.783 29.607 2.721 4.188 4.968 10.863 9.187 14.06 6.36 4.877 15.857 5.41 21.97 11.203 12.224 11.618 9.776 25.107 30.177 26.624 21.748 1.608 25.849-19.57 14.508-34.589-6.907-9.157-18.217-13.172-25.828-21.586-6.289-6.979-10.136-16.147-13.997-24.559-7.722-16.859-5.665-46.91-21.084-58.356-6.297-4.679-24.416-6.911-21.953-19.381 1.159-5.892 18.548-17.896 23.59-22.042 25.511-20.924 46.388-56.647 25.323-88.757-13.125-20.043-44.597-22.384-63.582-34.88-10.633-6.893-13.093-16.397-28.272-21.072z" fill="#E39D77"/><path d="M298.683 273.654c.402 5.763.939 11.325 1.174 16.853.302 6.299.201 12.598.537 18.864.503 9.012 1.208 18.025 1.879 27.004.302 3.987.805 7.975 1.006 11.995.168 3.083-.167 3.384-2.885 4.49-.503.201-1.007.435-1.543.536-4.932.938-9.864 1.843-14.796 2.781-.906.167-1.778.368-2.651.603-1.409.368-2.784.904-4.227 1.173-4.395.804-5.033.167-5.435-4.189-.638-6.902-1.577-13.77-2.147-20.672-.604-7.271-1.007-14.575-1.376-21.845-.47-9.013-.772-18.059-1.174-27.072-.034-.804-.202-1.608-.302-2.479-.738-.134-1.342-.302-1.946-.335-4.697-.436-9.025-1.91-13.32-3.854-2.482-1.105-5.301-1.373-7.884-2.278-3.691-1.273-7.415-2.613-10.938-4.255-5.066-2.379-8.89-6.433-12.245-10.755-4.463-5.763-8.556-11.827-12.817-17.758-2.013-2.814-3.959-5.695-6.106-8.409-5.972-7.505-10.233-15.748-11.206-25.43-.671-6.668-.503-13.335.604-19.936 1.678-9.783 5.737-18.628 11.34-26.737 3.691-5.327 7.683-10.453 11.743-15.479 2.516-3.116 5.401-5.897 8.22-8.745 3.254-3.317 7.146-5.695 11.474-7.304 6.777-2.479 13.521-5.159 20.701-6.064 5.334-.67 10.736-.972 16.104-1.005 10.065-.067 20.097.904 29.893 3.317 8.992 2.211 17.749 5.093 25.901 9.515 4.026 2.178 7.784 4.758 10.904 8.209 2.919 3.25 6.308 6.031 8.757 9.783 4.194 6.433 6.844 13.402 6.945 21.008.134 9.113-.067 18.26-.503 27.34-.369 7.069-2.114 13.871-5.201 20.304-1.275 2.613-2.281 5.36-3.455 8.041-3.49 8.007-8.489 15.11-13.823 21.945a168.332 168.332 0 0 1-6.979 8.41c-2.382 2.681-5.334 4.724-8.589 6.232-4.73 2.178-9.394 4.523-14.493 5.696-.403.067-.705.301-1.141.502zm-24.962-123.8h-4.898c-7.415.034-14.46 1.642-21.036 5.193-2.147 1.173-4.328 2.312-6.509 3.485-1.879.972-3.556 2.111-4.865 3.886-1.174 1.609-2.684 2.982-4.127 4.39-4.73 4.69-7.817 10.286-9.327 16.718-1.878 7.941-2.885 15.949-2.549 24.124.134 3.149.603 6.165 1.979 9.013 2.583 5.428 5.335 10.788 7.851 16.25 2.919 6.366 7.515 11.358 12.648 15.981 4.295 3.853 8.958 6.902 14.796 7.807 1.443.235 2.818.737 4.228 1.139 6.575 2.01 13.353 2.815 20.063 1.742 7.314-1.172 14.393-3.518 20.13-8.61a103.532 103.532 0 0 0 3.422-3.15c14.897-14.574 23.553-31.829 22.848-53.105-.168-5.729-1.174-11.157-4.831-15.915-3.12-4.02-5.972-8.275-9.529-11.961-1.644-1.709-3.187-3.518-5.032-4.959-2.584-2.01-5.301-3.886-8.153-5.528-4.999-2.848-10.132-5.428-16.071-5.796-3.623-.201-7.179-.469-11.038-.704z" fill="#B4C8E1"/><g fill="#1E1919"><path d="M340.992 421.578c-2.952-8.979-8.421-15.848-16.876-20.27-3.959-2.078-7.85-4.256-11.742-6.467-5.771-3.283-10.871-7.337-14.561-13-1.644-2.513-2.651-5.226-2.885-8.175-.47-6.433-2.349-12.564-4.563-18.528-2.148-5.83-6.107-10.051-12.213-12.028-1.979-.637-3.724-.335-5.77.871.872.77 1.543 1.474 2.348 1.977 3.556 2.177 6.14 5.36 7.817 8.945 2.953 6.266 5.234 12.833 5.838 19.835.503 5.964 3.053 10.956 6.912 15.446 3.288 3.82 7.246 6.667 11.507 9.18 4.328 2.547 8.824 4.791 13.119 7.371 5.468 3.284 10.367 7.271 13.118 13.201 1.744 3.719 3.12 7.572 4.663 11.392a325.75 325.75 0 0 1 1.376 3.417c3.456-1.842 4.462-3.752 3.724-6.868-.47-2.144-1.107-4.222-1.812-6.299zm-82.497-91.904c1.04-.335 1.678-1.742 1.443-3.485-.168-1.172-.503-2.311-.839-3.451-.704-2.345-.335-4.556.906-6.566.906-1.475 2.013-2.815 3.053-4.188 1.04-1.374 2.516-1.91 4.127-1.676 2.617.369 5.301.637 7.75 1.508 3.758 1.34 7.381 3.149 11.038 4.724 5.368 2.312 10.636 4.825 15.031 8.845.805.737 1.744 1.34 2.717 1.776 1.208.57 2.349.067 3.221-.838.94-.971.269-1.842-.268-2.713-2.215-3.619-5.335-6.266-9.092-8.075-4.597-2.211-9.327-4.188-13.991-6.198-3.724-1.609-7.649-2.413-11.91-2.379-7.616.335-14.863 5.461-17.816 12.698-1.14 2.814-.637 5.562.738 8.175.873 1.608 2.45 2.278 3.892 1.843z"/><path d="M264.758 345.087c-3.153-2.145-4.16-5.194-4.126-8.745.033-2.949 1.543-5.294 3.724-7.036 1.744-1.374 3.858-.268 5.77.234.269.067.537.168.772.268 7.012 2.379 13.991 4.792 21.003 7.07 1.543.502 3.221.67 4.831.771 1.376.1 2.416-.537 3.053-2.212-.872-.603-1.677-1.306-2.583-1.809-7.717-4.155-16.205-6.064-24.593-8.343-2.181-.603-4.361-.167-6.408.838-3.254 1.608-6.039 3.786-8.22 6.667-1.711 2.279-3.12 4.792-2.65 7.84.436 2.714.738 5.562 3.288 7.237 2.281 1.508 4.663 2.848 7.079 4.122 2.113 1.072 5.167-.101 6.643-2.58a211.04 211.04 0 0 0-3.993-.838c-1.208-1.273-2.248-2.613-3.59-3.484zm-1.003-45.767c-2.885 1.508-4.496 3.886-5.301 6.935-.403 1.508.067 2.446 1.745 2.982 1.275-2.144 2.751-4.154 3.69-6.399 1.04-2.479 2.718-3.351 5.133-3.016 5.872.771 11.71 1.642 17.581 2.48.101 0 .168.067.268.067 5.368 1.474 10.736 2.948 16.105 4.355 2.549.67 5.099 1.14 7.481 2.48 1.913 1.072 2.986.502 4.798-1.877-.973-2.077-2.617-3.35-4.831-3.92a372.326 372.326 0 0 0-8.22-2.01c-5.1-1.206-10.233-2.345-15.366-3.551.973-2.513.235-4.858-.705-7.137-.57-1.34-1.61-1.441-2.55-.368-1.14 1.34-1.577 2.848-1.04 4.59.269.837.571 1.675.94 2.714-2.483-.268-4.731-.503-6.979-.771-4.563-.603-8.757.369-12.749 2.446zM131.531 168.55c3.255-.369 6.509-.838 9.763-1.407 8.187-1.441 16.306-3.284 23.821-7.07 3.255-1.642 6.476-3.35 9.696-5.026 3.557 4.021 4.932 4.959 9.025 6.433 6.006 2.178 11.978 1.508 17.749-.469 4.898-1.675 9.595-4.02 14.393-6.031.906-.368 1.912-.871 2.785-.737 2.684.402 5.301.067 7.884-.502 10.669-2.245 20.13-7.07 28.753-13.57 11.105-8.342 19.761-18.628 24.794-31.729.704-1.876 1.274-3.819 1.61-5.796.403-2.312-.336-3.15-2.516-3.853-4.429 12.933-11.877 23.889-21.775 33.27-9.998 9.449-27.477 19.131-34.959 18.796.369-.502.906-.804 1.409-1.172a38.735 38.735 0 0 0 10.065-11.09c.973-1.609 1.845-3.384 2.416-5.194.805-2.613-.135-4.121-2.617-5.226-1.98-.871-3.959-.771-5.872 0-6.475 2.513-11.877 6.466-15.466 12.497-2.315 3.92-2.785 7.907.805 11.526-.235.268-.403.502-.604.636-5.603 3.15-11.407 5.796-17.681 7.237-3.288.737-6.643 1.34-10.032.57-3.959-.905-6.24-3.552-6.542-7.84 1.375-.838 2.885-1.709 4.328-2.647 4.999-3.183 10.065-6.266 14.997-9.583 2.818-1.909 4.965-4.59 6.375-7.739 1.945-4.255-.168-6.467-4.362-6.802-.872-.067-1.845.134-2.684.436-1.376.469-2.751 1.039-4.026 1.742-5.939 3.284-10.904 7.706-14.997 13.034-1.376 1.775-2.751 3.886-3.087 5.997-.436 2.747-1.812 4.188-4.127 5.16-.738.335-1.442.804-2.147 1.206-7.482 4.087-15.198 7.572-23.586 9.381-6.207 1.34-12.346 2.882-18.855 4.423 1.845 1.306 3.556 1.34 5.267 1.139zm83.709-23.721c3.019-8.176 9.427-12.565 17.245-15.681 1.073 1.944.369 3.451-.369 4.858-1.946 3.854-4.597 7.204-7.65 10.253-2.583 2.58-5.435 4.791-8.79 6.768-1.141-2.278-1.174-4.255-.436-6.198zm-14.293-16.82c.604 1.34-.134 2.48-.704 3.552-1.611 2.915-3.825 5.394-6.61 7.203-4.496 2.949-9.159 5.595-13.755 8.376-.101.067-.302-.033-.47-.067 1.442-6.232 14.561-17.858 21.539-19.064zm-42.773 51.765c1.543.034 3.12.201 4.597.537 5.066 1.139 9.595 3.45 13.755 6.566 5.234 3.887 8.019 9.114 8.254 15.647.067 2.01.033 4.021 0 5.998-.101 7.739-.101 15.512-.336 23.252-.235 8.443-2.315 16.585-4.127 24.793-.57 2.647-.973 5.395-1.006 8.108-.034 3.954 2.583 6.199 6.509 6.065.738-.034 1.442-.168 2.181-.268 4.059-.704 6.743-3.418 9.293-6.366.805-.938 1.678-1.809 2.785-2.982.436 1.173.738 1.91.973 2.68.402 1.207.704 2.446 1.174 3.652 1.074 2.714 2.516 3.384 5.368 2.848 4.462-.837 6.375-4.355 8.79-7.773-2.415 0-2.415 0-8.119 4.289-.671-1.943-1.308-3.82-1.979-5.663-.906-2.479-1.41-2.814-4.094-2.512-.905.1-1.778.335-2.65.603-3.02.938-5.1 3.116-7.113 5.36a194.057 194.057 0 0 1-3.791 4.088c-2.281-1.508-3.053-2.68-2.952-4.892.067-1.708.335-3.451.704-5.126 1.174-5.26 2.617-10.453 3.624-15.747 2.65-14.005 2.281-28.178 2.113-42.317-.067-5.059-2.382-9.548-6.106-13.1-5.334-5.026-11.709-8.008-18.855-9.415-4.999-.971-10.032-.469-15.031.101-5.67.636-11.105 2.077-16.238 4.657-6.04 3.015-11.072 7.404-15.903 11.995-.269.268-.403.703-.705 1.273 2.281 0 4.06-.57 5.637-1.709 2.449-1.776 4.931-3.451 7.28-5.361 7.549-6.198 16.104-9.515 25.968-9.281zm102.427 30.657c5.939.704 11.005-1.038 15.434-4.824 3.925-3.351 4.73-9.884 1.878-14.173-.436-.636-.805-1.307-1.375-2.278 4.999.603 9.159 2.044 12.514 5.26 3.221 3.116 6.274 6.366 9.428 9.549 1.208 1.206 2.516 2.312 3.858 3.518 2.617-2.077 2.953-2.982 1.174-4.959-2.348-2.647-4.999-5.026-7.515-7.538-3.355-3.317-7.482-5.127-11.977-6.333-5.335-1.44-10.77-1.876-16.306-1.608-10.266.503-19.09 4.557-26.807 11.124-3.12 2.646-4.798 6.332-5.838 10.319 2.114.804 3.624.235 4.832-1.24a23.006 23.006 0 0 0 2.214-3.149c2.617-4.557 6.24-8.041 10.938-10.42.402-.201.872-.268 1.308-.402-.738 1.977-1.845 3.719-2.047 5.528-.738 6.768 1.544 10.789 8.287 11.626z"/><path d="M177.298 210.532c2.181-.57 2.65-1.742 1.174-3.552-.906-1.105-2.013-2.11-3.12-3.048-5.57-4.524-11.944-6.903-19.124-7.238-10.233-.502-18.956 2.279-24.861 11.258-.369.57-.671 1.173-1.141 1.91 2.919.335 5.134-.101 6.878-2.312 1.98-2.479 4.261-4.657 7.113-6.299-.369.57-.805 1.106-1.141 1.675-2.315 4.054-1.006 8.913 3.12 10.655 3.657 1.541 7.549 2.044 11.508.871 2.382-.704 3.993-2.111 4.563-4.59.503-2.345 1.007-4.724 1.577-7.304 1.04.67 2.08 1.172 2.986 1.943 1.577 1.34 3.221 2.714 4.563 4.289 1.677 2.044 3.59 2.379 5.905 1.742zm71.46-37.291c13.051-2.547 26.136-4.155 39.388-1.106 4.999 1.139 9.931 2.412 14.461 4.925 2.281 1.24 4.697 2.212 7.481 3.485-.268-2.58-.805-4.356-2.952-5.328-2.147-.971-4.328-1.976-6.375-3.115-7.448-4.188-15.601-6.467-23.921-7.472-13.42-1.642-26.438.369-38.415 7.036-2.282 1.273-4.295 3.049-6.341 4.657-.739.57-.94 1.34-.269 1.809 4.127-1.273 7.985-2.512 11.911-3.685a64.7 64.7 0 0 1 5.032-1.206zm-4.971 99.172c-4.882-1.079-9.772-.358-14.7-.102-7.197.405-14.112 1.902-20.497 5.155-7.201 3.68-14.541 7.082-22.302 9.584-.641.196-1.221.675-2.332 1.269 1.062.705 1.782 1.474 2.603 1.588 1.291.183 2.706-.004 4.048-.149 5.898-.695 11.342-2.684 16.721-4.992 3.81-1.641 7.656-3.321 11.572-4.61 6.928-2.29 14.189-2.376 21.422-2.819 2.538-.17 5.044-.733 7.907-1.182-1.004-2.365-2.156-3.207-4.442-3.742zm-33.511 20.528c-1.073.268-2.147.436-3.153.804-2.45.905-4.932 1.073-7.516.872-.604-.067-1.241 0-2.248 0 .47 1.976.403 3.92 2.617 4.288 2.248.369 4.496.503 6.744.737 2.281.268 4.06-.703 5.637-2.177 1.241-1.173 1.308-1.843.603-3.351-.57-1.24-1.509-1.474-2.684-1.173z"/></g></svg>